<svg width="36" height="41" viewBox="0 0 36 41" fill="none" xmlns="http://www.w3.org/2000/svg">
    <path
        d="M12.2651 30.7055V32.7467C12.2651 34.3707 12.8973 35.9282 14.0225 37.0766C15.1477 38.225 16.6738 38.8701 18.2651 38.8701C19.8564 38.8701 21.3826 38.225 22.5078 37.0766C23.633 35.9282 24.2651 34.3707 24.2651 32.7467V30.7055M14.2651 6.2117C14.2651 5.129 14.6866 4.09065 15.4367 3.32507C16.1869 2.55949 17.2043 2.12939 18.2651 2.12939C19.326 2.12939 20.3434 2.55949 21.0936 3.32507C21.8437 4.09065 22.2651 5.129 22.2651 6.2117C24.562 7.3201 26.5199 9.04548 27.9292 11.2029C29.3385 13.3604 30.146 15.8685 30.2651 18.4586V24.5821C30.4156 25.8511 30.856 27.0663 31.5508 28.1298C32.2455 29.1934 33.1753 30.0757 34.2651 30.7055H2.26514C3.35501 30.0757 4.28476 29.1934 4.97951 28.1298C5.67427 27.0663 6.11463 25.8511 6.26514 24.5821V18.4586C6.38426 15.8685 7.19174 13.3604 8.60104 11.2029C10.0103 9.04548 11.9683 7.3201 14.2651 6.2117Z"
        stroke="#fafafa" stroke-width="3" stroke-linecap="round" stroke-linejoin="round" />
</svg>