<svg id="Layer_1" data-name="Layer 1" xmlns="http://www.w3.org/2000/svg" viewBox="0 0 1000 1000"><defs><style>.cls-1{fill:#000;}.cls-2{font-size:97.35px;font-family:Philosopher-Bold, Philosopher;font-weight:700;}.cls-2,.cls-5{fill:#000;}.cls-3{letter-spacing:-0.02em;}.cls-4{letter-spacing:-0.08em;}.cls-5{font-size:82.6px;font-family:Philosopher-Regular, Philosopher;}</style></defs><title>INDO ROYAL TEAK</title><path class="cls-1" d="M483.05,281.42h0a87.67,87.67,0,0,0-19.28-25.51,116.11,116.11,0,0,0-111.42-26.49,5.76,5.76,0,0,0-4.05,4.38,117.05,117.05,0,0,0-1,40.47c.25,1.68.54,3.35.86,5,.41,2.1.89,4.17,1.4,6.22A116,116,0,0,0,360,312.39h0a116.3,116.3,0,0,0,18.34,25.18c1.72,1.81,3.5,3.55,5.27,5.18,1.17,1.09,2.37,2.14,3.59,3.18.17.15.35.28.53.43,1,.88,2.11,1.75,3.19,2.59.46.36.94.7,1.41,1.05.8.61,1.6,1.22,2.42,1.81s1.65,1.13,2.48,1.69c.49.33,1,.68,1.47,1,1.21.79,2.45,1.56,3.69,2.3l.36.23A118.7,118.7,0,0,0,452,373.15l.72.08.36,0c.1,0,.2,0,.3,0h.1a5.67,5.67,0,0,0,5.34-7.77,52,52,0,0,0-1.6-7.75c-.44-1.5-.94-3-1.5-4.42-.42-1.06-.88-2.11-1.37-3.14a51.32,51.32,0,0,0-2.66-5c-.16-.27-.34-.54-.51-.81a51.67,51.67,0,0,0-67.6-18.07,105,105,0,0,1-10.83-14.74,69.86,69.86,0,0,1,104.41,54.86c0,.13.05.25.07.38a4,4,0,0,0,.08.5,5.62,5.62,0,0,0,.19.58,3.75,3.75,0,0,0,.16.43,4.71,4.71,0,0,0,.32.58,3,3,0,0,0,.2.34,5.08,5.08,0,0,0,.47.57,2.41,2.41,0,0,0,.21.24,5.7,5.7,0,0,0,.81.66c.08.06.18.1.26.15a6.47,6.47,0,0,0,.69.36l.36.13a5.6,5.6,0,0,0,.7.2l.12,0a4.92,4.92,0,0,0,.76.09h0a5.82,5.82,0,0,0,1.11-.06l.13,0a5.14,5.14,0,0,0,1-.28l.18-.07a5.23,5.23,0,0,0,.91-.47l.14-.09A6.09,6.09,0,0,0,487,370a5.75,5.75,0,0,0,1.57-3c1.33-7,2.34-13.59,3.05-19.85,3.06-27.15.29-47.93-8.52-65.78ZM358.9,239.53A104.65,104.65,0,0,1,455,263.44a118,118,0,0,0-97.23,1.14A105.62,105.62,0,0,1,358.9,239.53Zm49.93,92.37c.94,0,1.88.1,2.82.19a40.29,40.29,0,0,1,34.55,28.75l-.57-.08-1.56-.29c-.84-.15-1.68-.31-2.51-.48l-1.61-.35-2.44-.58-1.59-.41c-.83-.22-1.65-.45-2.47-.69-.5-.14-1-.28-1.49-.44-.9-.27-1.78-.56-2.66-.86l-1.24-.41c-1.25-.44-2.49-.89-3.72-1.37l-.12-.05c-1.28-.5-2.55-1-3.81-1.58l-1.07-.49q-1.33-.6-2.64-1.23l-1.34-.67c-.77-.39-1.55-.78-2.32-1.19l-1.39-.76c-.74-.41-1.48-.83-2.21-1.26-.46-.26-.91-.53-1.37-.81-.73-.44-1.46-.9-2.18-1.36l-1.29-.83c-.77-.51-1.53-1-2.29-1.56l-1.09-.75c-1-.72-2-1.45-2.93-2.19l-.34-.25q-1.62-1.26-3.18-2.58l-.9-.79L392.11,335a40.07,40.07,0,0,1,11.06-2.85A41.16,41.16,0,0,1,408.83,331.9Zm53.89-19.48a80.89,80.89,0,0,0-95.36-11c-.37-.78-.74-1.56-1.08-2.35-.07-.15-.14-.3-.2-.45-.54-1.25-1.05-2.51-1.54-3.78-.12-.31-.24-.63-.35-.94-.38-1-.75-2-1.09-3.05-.11-.33-.23-.65-.33-1-.43-1.3-.84-2.6-1.21-3.92l-.09-.33c-.34-1.21-.66-2.42-1-3.64-.09-.35-.17-.71-.26-1.06-.26-1.11-.5-2.23-.72-3.34l-.15-.73-.06-.35a106.61,106.61,0,0,1,114,11.06c.4.85.81,1.71,1.19,2.58l0,.07c.47,1.11.91,2.24,1.33,3.38.12.31.23.62.34.93.36,1,.71,2.05,1,3.1l.15.48c.36,1.19.69,2.4,1,3.62.08.31.15.63.22.94.26,1,.49,2.08.7,3.14.06.26.11.51.16.76.25,1.27.47,2.57.67,3.88l.12.9c.15,1.1.29,2.21.41,3.33,0,.33.07.65.1,1q.21,2.06.33,4.17c0,.26,0,.52,0,.78.06,1.21.11,2.43.13,3.67l0,1.15c0,1.48,0,3,0,4.5,0,.15,0,.3,0,.45,0,1.4-.08,2.83-.16,4.27,0,.43,0,.86-.07,1.29s0,.77-.08,1.15A81.08,81.08,0,0,0,462.72,312.42Z"/><path class="cls-1" d="M490.13,428.89a5.68,5.68,0,0,0-7.76-5.31,51.69,51.69,0,0,0-39.15,75.25,104.26,104.26,0,0,1-14.75,10.82,69.86,69.86,0,0,1,54.86-104.4c.13,0,.25-.05.38-.07l.51-.09a5.58,5.58,0,0,0,.58-.18l.42-.16a5.39,5.39,0,0,0,.58-.32l.34-.2a4.39,4.39,0,0,0,.57-.48l.25-.2a6.58,6.58,0,0,0,.66-.82,2.34,2.34,0,0,0,.15-.27,5.51,5.51,0,0,0,.36-.68c.05-.11.08-.24.12-.36a5.49,5.49,0,0,0,.21-.69.5.5,0,0,0,0-.13,1.84,1.84,0,0,0,0-.33c0-.14.06-.28.07-.43s0-.14,0-.2,0-.34,0-.51a3.68,3.68,0,0,0-.07-.58c0-.16-.06-.32-.1-.48s-.11-.38-.18-.56-.12-.29-.19-.43a3.92,3.92,0,0,0-.29-.53,3.11,3.11,0,0,0-.25-.38,4,4,0,0,0-.38-.46c-.1-.12-.2-.23-.31-.34s-.31-.26-.48-.39-.23-.18-.36-.26a5,5,0,0,0-.6-.33c-.12-.05-.23-.12-.36-.17a5.93,5.93,0,0,0-1.06-.32q-7-1.32-13.47-2.23c-28.14-4-49.66-2.11-68,5.78q-2.12.92-4.17,1.93a87.41,87.41,0,0,0-25.5,19.28,116.09,116.09,0,0,0-26.49,111.41,5.72,5.72,0,0,0,4.38,4,117.05,117.05,0,0,0,40.47,1c3.35-.5,6.67-1.14,9.94-1.92a116.09,116.09,0,0,0,28.17-10.77h0a116,116,0,0,0,25.18-18.34c.66-.63,1.32-1.28,2-1.92,1.1-1.11,2.18-2.22,3.21-3.34s2.14-2.37,3.17-3.59c.32-.37.61-.76.92-1.13.71-.86,1.42-1.71,2.1-2.59.45-.57.87-1.17,1.31-1.75s1.05-1.38,1.55-2.09,1.07-1.56,1.6-2.34c.36-.54.75-1.07,1.1-1.62.64-1,1.24-2,1.84-2.94.23-.38.47-.74.7-1.12.79-1.32,1.55-2.67,2.29-4,0,0,0-.08.07-.13a118.56,118.56,0,0,0,13.77-45.37c0-.15,0-.3.05-.45s0-.23,0-.3,0-.21,0-.31A1,1,0,0,0,490.13,428.89Zm-30.66,18.65c.49-.53,1-1,1.51-1.53l1-.92c.31-.28.62-.56.94-.83l1.07-.89,1-.75c.36-.27.73-.55,1.11-.81l1.06-.7,1.11-.71,1.18-.67c.36-.2.72-.41,1.08-.6s.89-.44,1.34-.65l1-.47c.52-.23,1.05-.44,1.59-.65l.83-.33c.81-.29,1.64-.57,2.47-.81l-.09.57c-.09.53-.19,1-.28,1.57-.15.83-.31,1.67-.49,2.5-.11.54-.23,1.08-.35,1.62q-.27,1.22-.57,2.43c-.14.53-.27,1.07-.41,1.6q-.33,1.23-.69,2.46c-.15.5-.29,1-.44,1.5-.27.89-.56,1.76-.86,2.64-.14.42-.27.84-.42,1.26-.43,1.25-.89,2.48-1.37,3.71a1.12,1.12,0,0,1-.05.13c-.5,1.28-1,2.54-1.58,3.8l-.49,1.08c-.4.89-.8,1.77-1.23,2.64-.21.44-.44.88-.66,1.33-.39.78-.79,1.56-1.2,2.33-.25.46-.5.92-.76,1.38-.41.74-.82,1.48-1.25,2.22l-.81,1.36c-.45.74-.91,1.47-1.37,2.19-.27.43-.54.86-.82,1.29-.51.77-1,1.53-1.57,2.29-.25.36-.49.72-.75,1.08-.71,1-1.45,2-2.2,3l-.24.31q-1.26,1.62-2.58,3.18l-.78.9c-.51.59-1,1.18-1.56,1.76A40.21,40.21,0,0,1,459.47,447.54ZM429.31,419.7a80.87,80.87,0,0,0-11,95.37c-.78.36-1.56.73-2.35,1.07l-.45.21q-1.87.81-3.78,1.53l-.95.36c-1,.38-2,.74-3,1.08l-1,.34c-1.29.43-2.59.83-3.9,1.21l-.36.09c-1.19.34-2.39.65-3.6.95l-1.09.25c-1.1.26-2.21.5-3.32.72-.25,0-.49.11-.74.15l-.35.06a106.59,106.59,0,0,1,11.06-114c.87-.41,1.73-.83,2.62-1.2h0c1.13-.48,2.27-.92,3.43-1.35l.9-.33c1-.37,2.08-.72,3.14-1.05l.44-.14c1.2-.37,2.42-.7,3.65-1l.9-.22c1.05-.25,2.12-.49,3.2-.71l.72-.14c1.28-.25,2.58-.48,3.9-.67.28-.05.57-.08.86-.12,1.11-.16,2.24-.3,3.38-.42l.94-.1c1.37-.13,2.77-.24,4.19-.33l.73,0c1.22-.07,2.47-.11,3.73-.14l1.11,0c1.48,0,3,0,4.53,0h.38c1.43,0,2.88.09,4.35.16l1.24.07,1.17.08A81.2,81.2,0,0,0,429.31,419.7ZM356.42,523.52a104.63,104.63,0,0,1,23.91-96.09,118,118,0,0,0,1.13,97.23A105,105,0,0,1,356.42,523.52Z"/><path class="cls-1" d="M651.14,486.26a116.17,116.17,0,0,0-11.83-33.11h0A116.64,116.64,0,0,0,621,428c-1.72-1.81-3.5-3.55-5.27-5.18q-1.76-1.64-3.59-3.18L611,418.7c-.86-.71-1.72-1.43-2.6-2.11-.61-.48-1.25-.93-1.87-1.4s-1.3-1-2-1.46-1.61-1.1-2.41-1.65c-.52-.35-1-.71-1.54-1.05-1-.63-2-1.23-3-1.84l-1.11-.69c-1.28-.77-2.59-1.5-3.9-2.22-.09,0-.17-.1-.26-.15A118.57,118.57,0,0,0,547,392.36l-.46-.05-.31,0c-.1,0-.2,0-.3,0h-.17a5.68,5.68,0,0,0-5.31,7.76,51.69,51.69,0,0,0,75.24,39.16A105,105,0,0,1,626.54,454a69.86,69.86,0,0,1-104.41-54.86c0-.13,0-.25-.07-.38a4.5,4.5,0,0,0-.08-.51c-.05-.19-.12-.38-.19-.57a3.75,3.75,0,0,0-.16-.43,6.45,6.45,0,0,0-.31-.58c-.07-.11-.13-.23-.21-.34a5.08,5.08,0,0,0-.47-.57,2.41,2.41,0,0,0-.21-.24,5.08,5.08,0,0,0-.81-.66c-.08-.06-.18-.1-.26-.15a6.47,6.47,0,0,0-.69-.36l-.37-.13a5.31,5.31,0,0,0-.68-.2l-.13,0c-.11,0-.22,0-.34,0s-.28,0-.43-.06a1.41,1.41,0,0,0-.2,0,4.34,4.34,0,0,0-.51,0l-.58.07L515,394a5.22,5.22,0,0,0-.56.18,3.38,3.38,0,0,0-.44.18,5.29,5.29,0,0,0-.52.29l-.39.25c-.16.12-.3.25-.45.38a2.58,2.58,0,0,0-.34.32,4.22,4.22,0,0,0-.38.46,3.37,3.37,0,0,0-.28.38,5.33,5.33,0,0,0-.31.58c-.06.13-.13.24-.19.37a6.17,6.17,0,0,0-.31,1.06q-.66,3.5-1.22,6.86c-5.6,33.67-3.48,58.17,6.69,78.77h0a87.53,87.53,0,0,0,19.29,25.51A116.11,116.11,0,0,0,647,536.12a5.74,5.74,0,0,0,4-4.39,117,117,0,0,0,1-40.47C651.75,489.59,651.46,487.92,651.14,486.26ZM564.43,423a40.21,40.21,0,0,1-11.32-18.26l.57.08,1.56.28,2.51.49,1.61.35,2.44.58,1.6.41,2.45.68c.5.15,1,.29,1.51.45.88.27,1.76.56,2.64.85l1.26.42c1.24.44,2.48.89,3.7,1.37l.13,0c1.28.5,2.55,1,3.8,1.58l1.09.5c.88.4,1.76.8,2.63,1.22l1.33.67c.78.39,1.56.78,2.33,1.19l1.39.76c.74.41,1.48.83,2.21,1.26.46.26.92.53,1.37.81.74.44,1.46.9,2.19,1.36l1.28.83c.77.51,1.54,1,2.29,1.56l1.09.75c1,.72,2,1.45,2.95,2.2l.32.24q1.62,1.26,3.18,2.58l.9.79,1.76,1.55A40.21,40.21,0,0,1,564.43,423Zm-27.84,30.16A80.87,80.87,0,0,0,632,464.07c.37.79.73,1.57,1.08,2.35.07.16.14.31.2.46.54,1.25,1,2.51,1.54,3.78l.36.95q.55,1.5,1.08,3l.34,1c.42,1.29.83,2.59,1.2,3.9,0,.12.06.24.1.36.34,1.2.65,2.4.94,3.61.09.36.18.72.26,1.08q.39,1.65.72,3.33l.15.73.06.35a106.61,106.61,0,0,1-114-11.06c-.4-.86-.82-1.72-1.19-2.6l0,0c-.47-1.11-.92-2.24-1.34-3.39-.12-.31-.23-.62-.34-.93-.36-1-.71-2.05-1-3.09l-.15-.49c-.36-1.19-.69-2.4-1-3.62-.08-.31-.15-.63-.23-.95q-.37-1.54-.69-3.12c0-.26-.11-.52-.16-.78q-.37-1.91-.66-3.87c-.05-.3-.09-.61-.13-.91-.15-1.09-.29-2.19-.41-3.31,0-.33-.07-.66-.1-1-.14-1.37-.25-2.75-.33-4.16,0-.26,0-.52,0-.77-.06-1.21-.11-2.44-.13-3.69l0-1.13c0-1.49,0-3,0-4.52,0-.13,0-.27,0-.4,0-1.42.08-2.87.16-4.33,0-.42,0-.83.07-1.25s.05-.78.08-1.17A81.24,81.24,0,0,0,536.59,453.12ZM640.41,526a104.65,104.65,0,0,1-96.09-23.91A118,118,0,0,0,641.55,501,105.62,105.62,0,0,1,640.41,526Z"/><path class="cls-1" d="M509.17,336.47a1.09,1.09,0,0,0,0,.18,5.67,5.67,0,0,0,8,5.28,51.59,51.59,0,0,0,29.68-14.66q.74-.74,1.44-1.5a51.65,51.65,0,0,0,7.82-59.06,104.74,104.74,0,0,1,14.74-10.82A69.85,69.85,0,0,1,516,360.29c-.13,0-.26,0-.38.07a4.54,4.54,0,0,0-.51.09,5.58,5.58,0,0,0-.58.18l-.42.16a4.24,4.24,0,0,0-.59.33,3.54,3.54,0,0,0-.33.19,6,6,0,0,0-.62.51l-.19.17a5.85,5.85,0,0,0-.67.82c0,.06-.07.13-.11.2a5.4,5.4,0,0,0-.4.75c-.05.11-.08.23-.12.34a6.36,6.36,0,0,0-.21.71s0,.08,0,.13,0,.21,0,.32-.06.29-.07.44,0,.13,0,.2,0,.34,0,.51a3.68,3.68,0,0,0,.07.58c0,.16.06.32.1.48s.11.38.18.56.12.29.19.43a5.21,5.21,0,0,0,.28.52,3.77,3.77,0,0,0,.26.39,4,4,0,0,0,.38.46c.1.12.2.23.31.34s.32.26.48.39.23.18.36.26a5,5,0,0,0,.6.33c.12.05.23.12.36.17a5.2,5.2,0,0,0,1.06.31c2.33.45,4.61.85,6.86,1.23,33.67,5.59,58.16,3.48,78.76-6.69h0a86.65,86.65,0,0,0,22.86-16.53c.89-.89,1.78-1.81,2.64-2.75A116.11,116.11,0,0,0,653,235.46a5.73,5.73,0,0,0-4.38-4,116.8,116.8,0,0,0-40.47-1c-1.67.25-3.34.53-5,.86A115.46,115.46,0,0,0,570,243.12h0a116.21,116.21,0,0,0-25.18,18.34c-1.79,1.71-3.53,3.48-5.18,5.26a117.77,117.77,0,0,0-30.2,66.66c-.09.85-.2,1.7-.28,2.55h0c0,.08,0,.19,0,.24S509.18,336.37,509.17,336.47ZM539.84,318a40.24,40.24,0,0,1-18.26,11.32l.09-.58c.09-.52.18-1,.28-1.55.15-.84.31-1.68.49-2.52.11-.53.23-1.07.35-1.6.18-.82.37-1.63.57-2.45.14-.53.27-1.06.41-1.59.22-.82.45-1.64.69-2.45l.44-1.52c.27-.87.56-1.74.85-2.61.14-.43.28-.86.43-1.29.42-1.19.85-2.37,1.31-3.54l.11-.3c.5-1.27,1-2.53,1.57-3.77l.54-1.19c.39-.85.77-1.69,1.17-2.52.23-.48.47-.95.71-1.42.38-.75.76-1.49,1.15-2.23.26-.5.53-1,.8-1.47.4-.71.8-1.42,1.21-2.12.28-.49.57-1,.86-1.45.42-.71.86-1.4,1.3-2.1.29-.45.58-.91.88-1.36.49-.74,1-1.47,1.49-2.19.28-.39.54-.79.82-1.18.67-.93,1.35-1.84,2-2.75l.39-.52c.83-1.07,1.68-2.11,2.55-3.15.29-.34.59-.66.88-1,.48-.56,1-1.12,1.48-1.67A40.21,40.21,0,0,1,539.84,318ZM570,345.84a80.87,80.87,0,0,0,11-95.37c.75-.35,1.5-.7,2.26-1l.57-.26c1.23-.53,2.48-1,3.73-1.52l1-.38q1.47-.54,2.94-1.05l1.06-.36c1.28-.42,2.56-.82,3.85-1.19l.49-.13c1.15-.32,2.3-.62,3.47-.91l1.16-.27c1.06-.25,2.12-.48,3.19-.69.29-.06.57-.13.86-.18l.32-.05a106.59,106.59,0,0,1-11.06,114c-.86.41-1.72.82-2.6,1.2h-.05c-1.11.48-2.24.92-3.38,1.35l-.94.34c-1,.36-2,.71-3.09,1l-.48.16c-1.19.36-2.4.69-3.63,1l-.94.23c-1,.25-2.07.48-3.12.7l-.78.16q-1.9.36-3.87.66l-.91.13c-1.09.15-2.2.28-3.32.4l-1,.11q-2.06.19-4.17.33l-.77,0c-1.21.07-2.44.11-3.68.14l-1.14,0c-1.48,0-3,0-4.51,0h-.41c-1.42,0-2.86-.09-4.33-.16l-1.24-.07-1.17-.08A81.36,81.36,0,0,0,570,345.84ZM642.89,242A104.63,104.63,0,0,1,619,338.11a118,118,0,0,0-1.13-97.23A105,105,0,0,1,642.89,242Z"/><path class="cls-1" d="M471.42,243.54l28.23-28.23,35.56,35.55c2.77-2.64,5.67-5.15,8.66-7.54L499.65,199.1l-37.17,37.17C465.54,238.55,468.53,241,471.42,243.54Z"/><path class="cls-1" d="M360.43,411l-28.24-28.23,35.56-35.55q-4-4.17-7.55-8.67L316,382.77,353.16,420Q356.58,415.35,360.43,411Z"/><path class="cls-1" d="M638.88,354.54l28.24,28.23-35.56,35.55q4,4.17,7.55,8.67l44.22-44.22-37.18-37.18Q642.73,350.2,638.88,354.54Z"/><path class="cls-1" d="M527.89,522l-28.24,28.23L464.1,514.68c-2.77,2.64-5.67,5.15-8.66,7.54l44.21,44.22,37.18-37.18C533.77,527,530.78,524.56,527.89,522Z"/><circle class="cls-1" cx="500.21" cy="382.77" r="11.62"/><text class="cls-2" transform="translate(148.31 692.16)">PT INDO R<tspan class="cls-3" x="460.77" y="0">O</tspan><tspan class="cls-4" x="529.79" y="0">Y</tspan><tspan x="584.21" y="0">AL</tspan></text><text class="cls-5" transform="translate(396.65 773.3)">TEAK</text></svg>