<svg width="89" height="87" viewBox="0 0 89 87" fill="none" xmlns="http://www.w3.org/2000/svg">
<g clip-path="url(#clip0_1318_883)">
<path d="M81.2806 0.000166381C79.593 -0.0223027 77.9491 0.534218 76.6258 1.57602C75.3025 2.61781 74.3806 4.08125 74.0153 5.71989H1.96769C1.44826 5.72766 0.952296 5.93631 0.584963 6.3016C0.21763 6.66689 0.00781228 7.1601 0 7.67664C0 79.9258 0 75.5607 0.151361 76.0123C0.300772 76.3689 0.552984 76.6735 0.876211 76.8878C1.19944 77.1021 1.57922 77.2164 1.96769 77.2164H77.648C80.6526 77.1967 83.5285 76.001 85.6532 73.8882C87.7778 71.7754 88.9802 68.9154 89 65.9275V7.82716C88.9965 5.77829 88.1868 3.81216 86.7442 2.34939C85.3015 0.886632 83.3405 0.0434216 81.2806 0.000166381ZM81.2806 3.76314C81.7982 3.78056 82.3071 3.89978 82.7781 4.11391C83.2491 4.32805 83.6727 4.63285 84.0245 5.01072C84.3764 5.38859 84.6494 5.83204 84.828 6.31545C85.0065 6.79886 85.0869 7.31266 85.0646 7.82716V59.1541C83.9285 58.4528 82.6179 58.0811 81.2806 58.0811C79.9434 58.0811 78.6327 58.4528 77.4966 59.1541V7.67664C77.4803 6.65976 77.869 5.67773 78.5778 4.94464C79.2867 4.21154 80.2582 3.78685 81.2806 3.76314ZM77.648 73.604H4.38946C9.53572 54.3375 19.2228 43.6507 26.4881 38.0815C31.0296 34.431 36.2883 31.765 41.9269 30.2545C42.4287 30.1547 42.87 29.8608 43.1539 29.4373C43.4377 29.0139 43.5408 28.4957 43.4405 27.9967C43.3401 27.4977 43.0445 27.0588 42.6188 26.7765C42.193 26.4942 41.6719 26.3917 41.1701 26.4915C40.8673 26.4915 33.148 27.9967 24.2177 34.7701C15.0174 42.2467 7.96805 52.009 3.78401 63.0676V9.63338H73.8639C73.8639 68.3358 73.864 66.2285 74.0153 66.8306C74.132 67.1788 74.3552 67.4821 74.6538 67.698C74.9523 67.9139 75.3112 68.0316 75.6803 68.0348C76.1769 68.0362 76.6558 67.8509 77.0207 67.5159C77.3857 67.1808 77.6098 66.721 77.648 66.2285C77.6556 65.2039 78.0479 64.2191 78.748 63.4673C79.448 62.7155 80.4053 62.2508 81.432 62.1645C82.4224 62.2052 83.3613 62.6148 84.0623 63.3118C84.7632 64.0089 85.1751 64.9425 85.216 65.9275C85.2361 66.9284 85.0552 67.9233 84.6839 68.8538C84.3126 69.7843 83.7584 70.6319 83.0536 71.3467C82.3488 72.0616 81.5077 72.6295 80.5795 73.017C79.6513 73.4046 78.6547 73.6042 77.648 73.604Z" fill="#0089C4"/>
<path d="M85.216 77.3672C84.6966 77.375 84.2006 77.5836 83.8333 77.9489C83.4659 78.3142 83.2561 78.8074 83.2483 79.3239C83.2523 79.8192 83.1572 80.3103 82.9685 80.7687C82.7797 81.227 82.5012 81.6435 82.149 81.9937C81.7968 82.3439 81.378 82.621 80.9171 82.8086C80.4562 82.9963 79.9623 83.0909 79.4643 83.0869H7.56803C7.04617 83.0869 6.54568 83.2931 6.17666 83.66C5.80765 84.027 5.60034 84.5247 5.60034 85.0437C5.60034 85.5626 5.80765 86.0603 6.17666 86.4273C6.54568 86.7942 7.04617 87.0004 7.56803 87.0004H79.4643C81.4715 87.0004 83.3964 86.2075 84.8157 84.7961C86.235 83.3847 87.0323 81.4705 87.0323 79.4745C87.0594 79.2161 87.0332 78.955 86.9554 78.7071C86.8776 78.4591 86.7499 78.2296 86.5799 78.0324C86.4099 77.8352 86.2013 77.6745 85.9668 77.5601C85.7323 77.4457 85.4768 77.3801 85.216 77.3672Z" fill="#0089C4"/>
<path d="M66.1446 20.17C65.9952 19.8134 65.743 19.5087 65.4198 19.2945C65.0966 19.0802 64.7168 18.9658 64.3283 18.9658C63.9399 18.9658 63.5601 19.0802 63.2368 19.2945C62.9136 19.5087 62.6614 19.8134 62.512 20.17L58.728 29.5022C58.5907 29.7277 58.5371 29.994 58.5766 30.2547V64.1215C58.5766 65.6385 59.1826 67.0933 60.2613 68.166C61.3399 69.2386 62.8029 69.8413 64.3283 69.8413C65.8538 69.8413 67.3167 69.2386 68.3954 68.166C69.474 67.0933 70.08 65.6385 70.08 64.1215V30.2547C70.1036 29.9946 70.051 29.7333 69.9287 29.5022L66.1446 20.17ZM62.512 56.5956H66.296V58.5523H62.512V56.5956ZM64.3283 25.8897L66.296 30.5558V52.8326H62.512V30.5558L64.3283 25.8897ZM64.3283 66.0783C63.8089 66.0705 63.3129 65.8619 62.9456 65.4966C62.5783 65.1313 62.3684 64.6381 62.3606 64.1215V62.1648H66.1446V64.1215C66.1705 64.372 66.1424 64.6252 66.0624 64.8641C65.9823 65.103 65.8521 65.3223 65.6803 65.5073C65.5085 65.6923 65.2992 65.839 65.0661 65.9374C64.833 66.0358 64.5815 66.0839 64.3283 66.0783Z" fill="#0089C4"/>
<path d="M15.1361 18.9658C13.6393 18.9658 12.1761 19.4072 10.9316 20.2342C9.68702 21.0611 8.71701 22.2365 8.1442 23.6117C7.57139 24.9869 7.42152 26.5001 7.71354 27.96C8.00555 29.4199 8.72633 30.7609 9.78474 31.8134C10.8432 32.8659 12.1916 33.5827 13.6597 33.8731C15.1278 34.1635 16.6494 34.0145 18.0323 33.4448C19.4152 32.8752 20.5971 31.9106 21.4287 30.673C22.2603 29.4353 22.7042 27.9803 22.7042 26.4918C22.7042 24.4958 21.9068 22.5815 20.4875 21.1701C19.0683 19.7587 17.1433 18.9658 15.1361 18.9658ZM15.1361 30.2547C14.3877 30.2547 13.6561 30.0341 13.0339 29.6206C12.4116 29.2071 11.9266 28.6194 11.6402 27.9318C11.3538 27.2442 11.2788 26.4876 11.4248 25.7577C11.5708 25.0277 11.9312 24.3572 12.4604 23.8309C12.9896 23.3047 13.6639 22.9463 14.3979 22.8011C15.1319 22.6559 15.8928 22.7304 16.5842 23.0152C17.2757 23.3 17.8666 23.7824 18.2824 24.4012C18.6982 25.02 18.9202 25.7475 18.9202 26.4918C18.9242 26.9871 18.8291 27.4782 18.6403 27.9365C18.4516 28.3949 18.173 28.8113 17.8208 29.1615C17.4687 29.5118 17.0499 29.7888 16.589 29.9765C16.1281 30.1642 15.6342 30.2588 15.1361 30.2547Z" fill="#0089C4"/>
<path d="M32.2399 43.5C30.7431 43.5 29.2799 43.9414 28.0353 44.7684C26.7908 45.5953 25.8208 46.7707 25.248 48.1459C24.6752 49.5211 24.5253 51.0343 24.8173 52.4942C25.1093 53.9541 25.8301 55.2951 26.8885 56.3476C27.9469 57.4001 29.2954 58.1169 30.7635 58.4073C32.2315 58.6977 33.7532 58.5486 35.1361 57.979C36.5189 57.4094 37.7009 56.4448 38.5325 55.2071C39.3641 53.9695 39.8079 52.5144 39.8079 51.026C39.8079 49.0299 39.0106 47.1157 37.5913 45.7043C36.172 44.2929 34.2471 43.5 32.2399 43.5ZM32.2399 54.7889C31.4915 54.7889 30.7599 54.5682 30.1376 54.1548C29.5153 53.7413 29.0303 53.1536 28.7439 52.466C28.4575 51.7784 28.3826 51.0218 28.5286 50.2918C28.6746 49.5619 29.035 48.8914 29.5642 48.3651C30.0934 47.8389 30.7677 47.4805 31.5017 47.3353C32.2357 47.1901 32.9965 47.2646 33.688 47.5494C34.3794 47.8342 34.9704 48.3165 35.3862 48.9354C35.802 49.5542 36.0239 50.2817 36.0239 51.026C36.0083 52.0191 35.6046 52.9673 34.8983 53.6696C34.1921 54.372 33.2386 54.7734 32.2399 54.7889Z" fill="#0089C4"/>
<path d="M52.9762 18.9658H49.1921V22.7288H52.9762V18.9658Z" fill="#0089C4"/>
<path d="M56.7601 15.2026H52.9761V18.9656H56.7601V15.2026Z" fill="#0089C4"/>
<path d="M45.4083 64.1211H41.6243V67.8841H45.4083V64.1211Z" fill="#0089C4"/>
<path d="M49.1922 60.3584H45.4082V64.1214H49.1922V60.3584Z" fill="#0089C4"/>
</g>
<defs>
<clipPath id="clip0_1318_883">
<rect width="89" height="87" fill="white"/>
</clipPath>
</defs>
</svg>
