<svg width="20" height="20" viewBox="0 0 24 26" fill="none" xmlns="http://www.w3.org/2000/svg">
<path d="M1.33301 6.33333H22.6663M9.33301 11.6667V19.6667M14.6663 11.6667V19.6667M2.66634 6.33333L3.99967 22.3333C3.99967 23.0406 4.28063 23.7189 4.78072 24.219C5.28082 24.719 5.9591 25 6.66634 25H17.333C18.0403 25 18.7185 24.719 19.2186 24.219C19.7187 23.7189 19.9997 23.0406 19.9997 22.3333L21.333 6.33333M7.99967 6.33333V2.33333C7.99967 1.97971 8.14015 1.64057 8.3902 1.39052C8.64025 1.14048 8.97939 1 9.33301 1H14.6663C15.02 1 15.3591 1.14048 15.6092 1.39052C15.8592 1.64057 15.9997 1.97971 15.9997 2.33333V6.33333" stroke="#B30000" stroke-width="2" stroke-linecap="round" stroke-linejoin="round"/>
</svg>
