<svg width="20" height="20" viewBox="0 0 27 27" fill="none" xmlns="http://www.w3.org/2000/svg">
<path d="M5.25 6.66682H3.83333C3.08189 6.66682 2.36122 6.96533 1.82986 7.49668C1.29851 8.02803 1 8.7487 1 9.50015V22.2502C1 23.0016 1.29851 23.7223 1.82986 24.2536C2.36122 24.785 3.08189 25.0835 3.83333 25.0835H16.5833C17.3348 25.0835 18.0554 24.785 18.5868 24.2536C19.1182 23.7223 19.4167 23.0016 19.4167 22.2502V20.8335M18 3.83348L22.25 8.08348M24.2121 6.0789C24.77 5.52095 25.0835 4.76421 25.0835 3.97515C25.0835 3.18609 24.77 2.42935 24.2121 1.8714C23.6541 1.31345 22.8974 1 22.1083 1C21.3193 1 20.5625 1.31345 20.0046 1.8714L8.08333 13.7502V18.0002H12.3333L24.2121 6.0789Z" stroke="black" stroke-width="2" stroke-linecap="round" stroke-linejoin="round"/>
</svg>
