<svg width="132" height="60" viewBox="0 0 132 88" fill="none" xmlns="http://www.w3.org/2000/svg">
<path d="M16.3077 84C13.0435 84 9.91298 82.7033 7.60484 80.3952C5.2967 78.087 4 74.9565 4 71.6923C4 68.4281 5.2967 65.2976 7.60484 62.9895C9.91298 60.6813 13.0435 59.3846 16.3077 59.3846M16.3077 84C19.5719 84 22.7024 82.7033 25.0105 80.3952C27.3187 78.087 28.6154 74.9565 28.6154 71.6923C28.6154 68.4281 27.3187 65.2976 25.0105 62.9895C22.7024 60.6813 19.5719 59.3846 16.3077 59.3846M16.3077 84H77.8462M16.3077 59.3846H77.8462M77.8462 84C74.582 84 71.4514 82.7033 69.1433 80.3952C66.8352 78.087 65.5385 74.9565 65.5385 71.6923C65.5385 68.4281 66.8352 65.2976 69.1433 62.9895C71.4514 60.6813 74.582 59.3846 77.8462 59.3846M77.8462 84C81.1104 84 84.2409 82.7033 86.549 80.3952C88.8571 78.087 90.1538 74.9565 90.1538 71.6923M90.1538 71.6923C90.1538 68.4281 88.8571 65.2976 86.549 62.9895C84.2409 60.6813 81.1104 59.3846 77.8462 59.3846M90.1538 71.6923H108.615M77.8462 59.3846V22.4615C77.8462 17.5652 75.9011 12.8695 72.4389 9.40726C68.9767 5.94505 64.2809 4 59.3846 4H47.0769V34.7692M108.615 47.0769V71.6923M108.615 71.6923C108.615 74.9565 109.912 78.087 112.22 80.3952C114.528 82.7033 117.659 84 120.923 84H127.077M22.4615 59.3846V40.9231C22.4615 39.291 23.1099 37.7257 24.264 36.5717C25.418 35.4176 26.9833 34.7692 28.6154 34.7692H77.8462" stroke="#1E1E1E" stroke-width="8" stroke-linecap="round" stroke-linejoin="round"/>
</svg>
