<svg width="20" height="20" viewBox="0 0 30 20" fill="none" xmlns="http://www.w3.org/2000/svg">
<path d="M11.8183 9.96366C11.8183 10.6827 12.1328 11.3723 12.6927 11.8807C13.2526 12.3891 14.0119 12.6748 14.8037 12.6748C15.5955 12.6748 16.3549 12.3891 16.9148 11.8807C17.4747 11.3723 17.7892 10.6827 17.7892 9.96366C17.7892 9.24463 17.4747 8.55504 16.9148 8.04661C16.3549 7.53818 15.5955 7.25255 14.8037 7.25255C14.0119 7.25255 13.2526 7.53818 12.6927 8.04661C12.1328 8.55504 11.8183 9.24463 11.8183 9.96366Z" stroke="black" stroke-width="2" stroke-linecap="round" stroke-linejoin="round"/>
<path d="M28.2383 9.96366C24.6558 15.3859 20.1776 18.097 14.8037 18.097C9.4299 18.097 4.9517 15.3859 1.36914 9.96366C4.9517 4.54143 9.4299 1.83032 14.8037 1.83032C20.1776 1.83032 24.6558 4.54143 28.2383 9.96366Z" stroke="black" stroke-width="2" stroke-linecap="round" stroke-linejoin="round"/>
</svg>
