<svg width="37" height="37" viewBox="0 0 37 37" fill="none" xmlns="http://www.w3.org/2000/svg">
<path d="M18.5 5.375C18.5 6.53532 18.9609 7.64812 19.7814 8.46859C20.6019 9.28906 21.7147 9.75 22.875 9.75C24.0353 9.75 25.1481 9.28906 25.9686 8.46859C26.7891 7.64812 27.25 6.53532 27.25 5.375M18.5 5.375C18.5 4.21468 18.9609 3.10188 19.7814 2.28141C20.6019 1.46094 21.7147 1 22.875 1C24.0353 1 25.1481 1.46094 25.9686 2.28141C26.7891 3.10188 27.25 4.21468 27.25 5.375M18.5 5.375H1M27.25 5.375H36M5.375 18.5C5.375 19.6603 5.83594 20.7731 6.65641 21.5936C7.47688 22.4141 8.58968 22.875 9.75 22.875C10.9103 22.875 12.0231 22.4141 12.8436 21.5936C13.6641 20.7731 14.125 19.6603 14.125 18.5M5.375 18.5C5.375 17.3397 5.83594 16.2269 6.65641 15.4064C7.47688 14.5859 8.58968 14.125 9.75 14.125C10.9103 14.125 12.0231 14.5859 12.8436 15.4064C13.6641 16.2269 14.125 17.3397 14.125 18.5M5.375 18.5H1M14.125 18.5H36M25.0625 31.625C25.0625 32.7853 25.5234 33.8981 26.3439 34.7186C27.1644 35.5391 28.2772 36 29.4375 36C30.5978 36 31.7106 35.5391 32.5311 34.7186C33.3516 33.8981 33.8125 32.7853 33.8125 31.625M25.0625 31.625C25.0625 30.4647 25.5234 29.3519 26.3439 28.5314C27.1644 27.7109 28.2772 27.25 29.4375 27.25C30.5978 27.25 31.7106 27.7109 32.5311 28.5314C33.3516 29.3519 33.8125 30.4647 33.8125 31.625M25.0625 31.625H1M33.8125 31.625H36" stroke="white" stroke-width="2" stroke-linecap="round" stroke-linejoin="round"/>
</svg>
