<svg width="40" height="35" viewBox="0 0 40 35" fill="none" xmlns="http://www.w3.org/2000/svg">
    <path
        d="M35.2676 18.6546L20.2783 33.5L5.28897 18.6546C4.30029 17.6925 3.52152 16.5361 3.0017 15.2583C2.48188 13.9804 2.23228 12.6088 2.2686 11.2297C2.30493 9.85069 2.6264 8.4941 3.21277 7.24539C3.79914 5.99668 4.63771 4.88291 5.67567 3.97421C6.71363 3.06551 7.9285 2.38156 9.24378 1.96544C10.5591 1.54933 11.9462 1.41005 13.318 1.55638C14.6897 1.70271 16.0163 2.13148 17.2142 2.81569C18.4121 3.4999 19.4554 4.42473 20.2783 5.53194C21.1048 4.43277 22.1492 3.51602 23.3463 2.83907C24.5434 2.16212 25.8673 1.73954 27.2352 1.59778C28.6031 1.45603 29.9855 1.59814 31.296 2.01523C32.6064 2.43232 33.8167 3.11541 34.851 4.02174C35.8853 4.92808 36.7214 6.03815 37.307 7.28248C37.8926 8.52681 38.215 9.87861 38.2541 11.2533C38.2932 12.6279 38.0481 13.9959 37.5343 15.2715C37.0204 16.5471 36.2487 17.7029 35.2676 18.6666"
        stroke="#fafafa" stroke-width="3" stroke-linecap="round" stroke-linejoin="round" />
</svg>