<svg width="76" height="88" viewBox="0 0 76 88" fill="none" xmlns="http://www.w3.org/2000/svg">
<path d="M3.73685 60.0771C4.10639 60.0771 4.46764 60.1867 4.7749 60.392C5.08216 60.5973 5.32165 60.8892 5.46306 61.2306C5.60448 61.572 5.64148 61.9477 5.56939 62.3101C5.49729 62.6725 5.31934 63.0055 5.05804 63.2668C4.79673 63.5281 4.46381 63.706 4.10136 63.7781C3.73892 63.8502 3.36324 63.8132 3.02183 63.6718C2.68042 63.5304 2.3886 63.2909 2.1833 62.9836C1.97799 62.6764 1.86841 62.3151 1.86841 61.9456C1.86841 61.45 2.06526 60.9748 2.41566 60.6244C2.76606 60.274 3.24131 60.0771 3.73685 60.0771Z" fill="#0089C4"/>
<path d="M1.86844 38.5186C2.23798 38.5186 2.59923 38.6281 2.90649 38.8334C3.21375 39.0388 3.45324 39.3306 3.59466 39.672C3.73607 40.0134 3.77307 40.3891 3.70098 40.7515C3.62889 41.114 3.45093 41.4469 3.18963 41.7082C2.92832 41.9695 2.5954 42.1474 2.23296 42.2195C1.87051 42.2916 1.49483 42.2546 1.15342 42.1132C0.812007 41.9718 0.520196 41.7323 0.314889 41.425C0.109582 41.1178 0 40.7565 0 40.387C0 39.8915 0.196853 39.4162 0.547254 39.0658C0.897654 38.7154 1.3729 38.5186 1.86844 38.5186Z" fill="#0089C4"/>
<path d="M10.9234 7.90479C11.2929 7.90479 11.6542 8.01437 11.9614 8.21967C12.2687 8.42498 12.5082 8.71679 12.6496 9.05821C12.791 9.39962 12.828 9.7753 12.7559 10.1377C12.6838 10.5002 12.5059 10.8331 12.2446 11.0944C11.9833 11.3557 11.6503 11.5337 11.2879 11.6058C10.9254 11.6779 10.5498 11.6409 10.2084 11.4994C9.86694 11.358 9.57513 11.1185 9.36982 10.8113C9.16451 10.504 9.05493 10.1428 9.05493 9.77323C9.05493 9.27769 9.25178 8.80244 9.60219 8.45204C9.95259 8.10164 10.4278 7.90479 10.9234 7.90479Z" fill="#0089C4"/>
<path d="M64.8206 11.498C65.1901 11.498 65.5514 11.6076 65.8586 11.8129C66.1659 12.0182 66.4054 12.3101 66.5468 12.6515C66.6882 12.9929 66.7252 13.3686 66.6531 13.731C66.581 14.0934 66.4031 14.4264 66.1418 14.6877C65.8805 14.949 65.5475 15.1269 65.1851 15.199C64.8227 15.2711 64.447 15.2341 64.1056 15.0927C63.7642 14.9513 63.4723 14.7118 63.267 14.4045C63.0617 14.0973 62.9521 13.736 62.9521 13.3665C62.9521 13.1211 63.0005 12.8782 63.0944 12.6515C63.1883 12.4248 63.3259 12.2188 63.4994 12.0453C63.6729 11.8718 63.8789 11.7342 64.1056 11.6403C64.3323 11.5464 64.5752 11.498 64.8206 11.498Z" fill="#0089C4"/>
<path d="M73.7315 61.8022C74.101 61.8022 74.4623 61.9118 74.7695 62.1171C75.0768 62.3224 75.3163 62.6143 75.4577 62.9557C75.5991 63.2971 75.6361 63.6728 75.564 64.0352C75.4919 64.3976 75.314 64.7306 75.0527 64.9919C74.7914 65.2532 74.4584 65.4311 74.096 65.5032C73.7335 65.5753 73.3579 65.5383 73.0165 65.3969C72.675 65.2555 72.3832 65.016 72.1779 64.7087C71.9726 64.4015 71.863 64.0402 71.863 63.6707C71.863 63.1751 72.0599 62.6999 72.4103 62.3495C72.7607 61.9991 73.2359 61.8022 73.7315 61.8022Z" fill="#0089C4"/>
<path d="M19.8343 38.3751V40.0998C19.866 43.0122 20.6059 45.8732 21.9902 48.4359L24.4335 51.5979C25.9626 53.2955 27.8207 54.6647 29.8951 55.6222C28.0267 58.0655 24.2898 62.2336 21.559 63.3834C20.5529 63.8146 20.4092 63.8146 11.9294 67.5515C5.89286 70.1385 2.58716 79.6245 2.58716 85.3735C2.59458 85.8668 2.79381 86.3377 3.14262 86.6865C3.49142 87.0353 3.96237 87.2346 4.4556 87.242H70.1385C70.6317 87.2346 71.1027 87.0353 71.4515 86.6865C71.8003 86.3377 71.9995 85.8668 72.0069 85.3735C71.5757 79.6245 68.27 70.1385 62.2335 67.5515C53.3225 63.6709 55.4784 64.6769 52.6039 63.3834C48.9697 61.862 45.9387 59.1846 43.9803 55.7659C46.9647 54.4097 49.4982 52.2271 51.2812 49.4763C53.0641 46.7255 54.0219 43.5215 54.0411 40.2435V30.0389C55.0896 29.6795 55.9995 29.0014 56.6438 28.0995C57.288 27.1975 57.6343 26.1169 57.6343 25.0085C57.6343 23.9001 57.288 22.8195 56.6438 21.9176C55.9995 21.0156 55.0896 20.3376 54.0411 19.9781C53.9311 16.3494 52.6557 12.8526 50.4037 10.0052C48.1517 7.15781 45.0427 5.11117 41.537 4.16821C41.4475 3.04311 40.941 1.992 40.1168 1.22095C39.2925 0.449895 38.21 0.0145113 37.0815 0.000149034C35.9459 -0.00916341 34.8502 0.418256 34.021 1.19403C33.1917 1.9698 32.6923 3.03458 32.6259 4.16821C29.1179 5.10702 26.0064 7.15254 23.7537 10.0008C21.5009 12.8491 20.2272 16.3482 20.1218 19.9781C19.0733 20.3376 18.1634 21.0156 17.5191 21.9176C16.8749 22.8195 16.5286 23.9001 16.5286 25.0085C16.5286 26.1169 16.8749 27.1975 17.5191 28.0995C18.1634 29.0014 19.0733 29.6795 20.1218 30.0389V34.0633L19.8343 38.3751ZM36.0754 4.16821C36.0754 3.9395 36.1662 3.72015 36.3279 3.55843C36.4897 3.39671 36.709 3.30585 36.9377 3.30585C37.1664 3.30585 37.3858 3.39671 37.5475 3.55843C37.7092 3.72015 37.8001 3.9395 37.8001 4.16821V11.3545C37.8001 11.5832 37.7092 11.8026 37.5475 11.9643C37.3858 12.126 37.1664 12.2169 36.9377 12.2169C36.709 12.2169 36.4897 12.126 36.3279 11.9643C36.1662 11.8026 36.0754 11.5832 36.0754 11.3545V4.16821ZM32.4822 7.61764V11.3545C32.4898 12.5339 32.9616 13.6628 33.7955 14.4967C34.6295 15.3307 35.7584 15.8025 36.9377 15.81C37.5255 15.8198 38.1093 15.7111 38.6542 15.4907C39.1992 15.2702 39.6942 14.9424 40.1099 14.5267C40.5256 14.111 40.8534 13.616 41.0739 13.071C41.2944 12.526 41.403 11.9423 41.3932 11.3545V7.61764C43.886 8.46698 46.0672 10.0436 47.6555 12.1443C49.2439 14.245 50.1664 16.7733 50.3043 19.4032H23.4275C23.6372 16.7741 24.604 14.262 26.2108 12.1705C27.8177 10.079 29.9959 8.4977 32.4822 7.61764ZM21.7027 26.877C21.2095 26.8695 20.7386 26.6703 20.3898 26.3215C20.041 25.9727 19.8417 25.5017 19.8343 25.0085C19.8263 24.761 19.8692 24.5145 19.9602 24.2841C20.0513 24.0538 20.1887 23.8447 20.3638 23.6695C20.5389 23.4944 20.7481 23.3571 20.9784 23.266C21.2087 23.1749 21.4552 23.1321 21.7027 23.1401H52.3164C52.812 23.1401 53.2872 23.3369 53.6376 23.6873C53.988 24.0377 54.1849 24.513 54.1849 25.0085C54.1849 25.5041 53.988 25.9793 53.6376 26.3297C53.2872 26.6801 52.812 26.877 52.3164 26.877H21.7027ZM48.5796 30.3264L48.1484 30.9013C47.4343 31.8264 46.5206 32.5783 45.4754 33.1009C44.4301 33.6235 43.2804 33.9034 42.1119 33.9195H31.6199C30.4514 33.9034 29.3016 33.6235 28.2564 33.1009C27.2111 32.5783 26.2974 31.8264 25.5834 30.9013L25.1522 30.3264H48.5796ZM45.1301 37.0815C47.2169 36.4956 49.1049 35.3529 50.5917 33.7758V40.0998C50.5703 42.9799 49.6359 45.779 47.9227 48.0944C46.2096 50.4097 43.8062 52.1219 41.0582 52.9847C38.3102 53.8474 35.3594 53.8162 32.6303 52.8955C29.9012 51.9748 27.5345 50.2121 25.8708 47.861C25.8708 47.7173 25.7271 47.7173 25.7271 47.5735C24.2398 45.3638 23.4397 42.7634 23.4275 40.0998V33.7758C24.8907 35.3818 26.7876 36.5299 28.8891 37.0815C28.8891 37.0815 38.8062 40.6172 45.1301 37.0815ZM41.2495 58.353L36.9377 61.515L32.1948 58.0655C32.574 57.6704 32.9112 57.2369 33.2008 56.772C35.5596 57.3241 38.0082 57.373 40.3872 56.9157C40.6746 57.3469 40.9621 57.9218 41.2495 58.353ZM14.5164 83.5051H6.03659C6.61149 78.4747 9.48602 72.2944 13.0792 70.8572L14.5164 70.2823V83.5051ZM21.7027 83.5051H18.1096V81.6366H21.7027V83.5051ZM21.7027 78.0435H18.1096V76.175H21.7027V78.0435ZM21.7027 72.7256H18.1096V68.7013L21.7027 67.1203V72.7256ZM48.7233 83.5051H25.2959V65.1081C26.9665 63.825 28.507 62.3808 29.8951 60.7963L35.0693 64.6769V74.5941C35.0693 75.0896 35.2661 75.5648 35.6165 75.9153C35.9669 76.2656 36.4422 76.4625 36.9377 76.4625C37.4333 76.4625 37.9085 76.2656 38.2589 75.9153C38.6093 75.5648 38.8062 75.0896 38.8062 74.5941V64.6769L43.5491 61.2275C45.0059 62.9201 46.7594 64.3326 48.7233 65.3956V83.5051ZM55.7659 83.5051H52.1727V81.6366H55.7659V83.5051ZM55.7659 78.0435H52.1727V76.175H55.7659V78.0435ZM55.7659 72.7256H52.1727V67.1203L55.7659 68.7013V72.7256ZM59.359 83.5051V70.2823L60.7963 70.8572C64.3894 72.4382 67.264 78.4747 67.8389 83.5051H59.359Z" fill="#0089C4"/>
<path d="M5.4616 34.9256C6.5418 34.9256 7.59774 34.6053 8.4959 34.0052C9.39405 33.4051 10.0941 32.5521 10.5075 31.5541C10.9208 30.5561 11.029 29.458 10.8183 28.3985C10.6075 27.3391 10.0873 26.3659 9.32353 25.6021C8.55971 24.8383 7.58655 24.3181 6.5271 24.1074C5.46766 23.8967 4.36951 24.0048 3.37153 24.4182C2.37356 24.8316 1.52057 25.5316 0.920445 26.4297C0.320317 27.3279 0 28.3838 0 29.464C0 30.9125 0.575417 32.3017 1.59966 33.326C2.62391 34.3502 4.01309 34.9256 5.4616 34.9256ZM5.4616 27.7393C5.95714 27.7393 6.43238 27.9362 6.78278 28.2866C7.13319 28.637 7.33004 29.1122 7.33004 29.6078C7.33004 30.1033 7.13319 30.5786 6.78278 30.929C6.43238 31.2794 5.95714 31.4762 5.4616 31.4762C4.96837 31.4688 4.49742 31.2696 4.14861 30.9208C3.79981 30.5719 3.60057 30.101 3.59316 29.6078C3.62669 29.1233 3.8343 28.6673 4.1777 28.3239C4.5211 27.9805 4.97711 27.7729 5.4616 27.7393Z" fill="#0089C4"/>
<path d="M68.4139 56.484C69.8352 56.484 71.2246 56.0625 72.4064 55.2728C73.5881 54.4832 74.5092 53.3609 75.0531 52.0477C75.5971 50.7346 75.7394 49.2897 75.4621 47.8957C75.1848 46.5017 74.5004 45.2212 73.4953 44.2162C72.4903 43.2111 71.2098 42.5267 69.8158 42.2494C68.4218 41.9721 66.9769 42.1144 65.6638 42.6584C64.3506 43.2023 63.2283 44.1234 62.4387 45.3051C61.649 46.4869 61.2275 47.8763 61.2275 49.2976C61.2275 51.2036 61.9847 53.0314 63.3324 54.3791C64.6801 55.7268 66.5079 56.484 68.4139 56.484ZM68.4139 45.7045C69.1245 45.7045 69.8192 45.9152 70.4101 46.31C71.001 46.7049 71.4615 47.266 71.7335 47.9226C72.0055 48.5792 72.0766 49.3016 71.938 49.9986C71.7993 50.6956 71.4571 51.3359 70.9546 51.8384C70.4521 52.3409 69.8118 52.6831 69.1148 52.8218C68.4178 52.9604 67.6954 52.8892 67.0388 52.6173C66.3822 52.3453 65.8211 51.8848 65.4263 51.2939C65.0314 50.703 64.8207 50.0083 64.8207 49.2976C64.8169 48.8247 64.9072 48.3558 65.0864 47.9181C65.2656 47.4804 65.5302 47.0828 65.8646 46.7484C66.199 46.4139 66.5966 46.1494 67.0343 45.9702C67.472 45.791 67.9409 45.7007 68.4139 45.7045Z" fill="#0089C4"/>
</svg>
