<svg width="32" height="32" viewBox="0 0 64 61" fill="none" xmlns="http://www.w3.org/2000/svg">
<path d="M35.4442 22.4129L59.3359 46.4137C61.9991 49.0668 61.9991 53.3635 59.3359 56.0134C58.0564 57.2857 56.3252 58 54.5207 58C52.7161 58 50.9849 57.2857 49.7054 56.0134L25.736 32.1193M25.736 32.1193L45.1516 12.7064L35.4435 3L16.0273 22.4129L5.54247 26.6061C4.92117 26.8546 4.37123 27.2534 3.94196 27.7666C3.51268 28.2799 3.21747 28.8916 3.08278 29.547C2.94809 30.2024 2.97813 30.8809 3.1702 31.5219C3.36228 32.1628 3.71038 32.746 4.18333 33.2194L14.927 43.9612C15.4004 44.4341 15.9838 44.7821 16.6248 44.9741C17.2658 45.1662 17.9445 45.1962 18.6 45.0615C19.2555 44.9269 19.8673 44.6317 20.3807 44.2025C20.8941 43.7733 21.2929 43.2235 21.5415 42.6023L25.736 32.1193Z" stroke="#1E1E1E" stroke-width="5" stroke-linecap="round" stroke-linejoin="round"/>
</svg>
