<svg width="95" height="94" viewBox="0 0 95 94" fill="none" xmlns="http://www.w3.org/2000/svg">
<g clip-path="url(#clip0_1318_866)">
<path d="M93.3572 89.8716H87.3545V75.4223C87.3503 72.939 86.3671 70.5586 84.6201 68.8026C82.8732 67.0466 80.5051 66.0583 78.0346 66.0541H67.6089V58.1149C67.6008 57.57 67.3818 57.0497 66.9984 56.6643C66.6151 56.279 66.0975 56.0589 65.5554 56.0507H59.7107L84.8271 23.5C85.0962 23.1621 85.2429 22.7421 85.2429 22.3091C85.2429 21.8762 85.0962 21.4562 84.8271 21.1183L73.6116 0.952712C73.4446 0.642034 73.1916 0.386685 72.8832 0.217594C72.5748 0.048503 72.2242 -0.0270765 71.874 9.70112e-06H21.3252C20.9814 0.00973031 20.6447 0.101118 20.3427 0.266701C20.0407 0.432284 19.7819 0.667361 19.5876 0.952712L8.21417 21.4358C8.07214 21.8024 8.0266 22.1996 8.08195 22.589C8.13729 22.9784 8.29165 23.3469 8.5301 23.6588L35.3841 56.0507H27.8018C27.2597 56.0589 26.7421 56.279 26.3587 56.6643C25.9754 57.0497 25.7564 57.57 25.7483 58.1149V66.0541H17.3761C14.9056 66.0583 12.5375 67.0466 10.7906 68.8026C9.04364 70.5586 8.06038 72.939 8.0562 75.4223V89.8716H2.05354C1.50891 89.8716 0.986582 90.0891 0.601468 90.4762C0.216355 90.8633 0 91.3884 0 91.9358C0 92.4833 0.216355 93.0083 0.601468 93.3954C0.986582 93.7825 1.50891 94 2.05354 94H92.8833C93.4254 93.9918 93.943 93.7717 94.3263 93.3864C94.7097 93.001 94.9287 92.4807 94.9368 91.9358C95.0134 91.692 95.0303 91.4332 94.986 91.1814C94.9417 90.9296 94.8376 90.6923 94.6825 90.4896C94.5274 90.287 94.326 90.125 94.0952 90.0174C93.8644 89.9098 93.6113 89.8598 93.3572 89.8716ZM54.8138 56.2095H54.0239C65.2394 21.4358 64.1337 24.6115 64.2916 24.4527H79.4563L54.8138 56.2095ZM45.9677 5.39866L58.447 20.4831H34.9102L45.9677 5.39866ZM45.8098 56.2095L42.0186 46.2061H45.8098C46.3544 46.2061 46.8767 45.9886 47.2618 45.6015C47.647 45.2144 47.8633 44.6894 47.8633 44.1419C47.8633 43.5944 47.647 43.0694 47.2618 42.6823C46.8767 42.2952 46.3544 42.0777 45.8098 42.0777H40.439L33.6465 24.1351H59.8686L58.6049 28.1047H49.6009C49.0563 28.1047 48.534 28.3222 48.1489 28.7093C47.7637 29.0964 47.5474 29.6215 47.5474 30.1689C47.5474 30.7164 47.7637 31.2414 48.1489 31.6285C48.534 32.0156 49.0563 32.2331 49.6009 32.2331H57.3412C57.3412 32.3919 58.131 29.8514 49.7589 56.0507H45.8098V56.2095ZM65.8713 20.4831L72.3478 6.66893L80.0881 20.4831H65.8713ZM69.0306 4.12839L62.2381 18.7365L50.0748 4.12839H69.0306ZM42.0186 4.12839L31.277 18.5777L24.6425 4.12839H42.0186ZM21.4832 6.51014L27.9598 20.3243H13.9009L21.4832 6.51014ZM14.5328 24.4527H29.5394C30.1713 26.3581 40.7549 54.3041 41.5447 56.2095H40.9129L14.5328 24.4527ZM30.1713 60.1791H63.8178V66.2128H30.1713V60.1791ZM12.3212 89.8716V75.4223C12.3149 74.7116 12.4495 74.0067 12.7172 73.3488C12.9849 72.691 13.3802 72.0933 13.8802 71.5907C14.3802 71.0881 14.9748 70.6907 15.6293 70.4217C16.2837 70.1526 16.985 70.0173 17.6921 70.0237H77.8766C78.5837 70.0173 79.2849 70.1526 79.9394 70.4217C80.5939 70.6907 81.1885 71.0881 81.6884 71.5907C82.1884 72.0933 82.5838 72.691 82.8515 73.3488C83.1191 74.0067 83.2537 74.7116 83.2474 75.4223V75.8987H32.0668C31.5222 75.8987 30.9999 76.1161 30.6148 76.5032C30.2297 76.8904 30.0133 77.4154 30.0133 77.9628C30.0133 78.5103 30.2297 79.0353 30.6148 79.4224C30.9999 79.8096 31.5222 80.027 32.0668 80.027H83.4054V90.0304H12.3212V89.8716Z" fill="#FAFAFA"/>
<path d="M24.8006 76.5338C24.591 76.7055 24.4247 76.9243 24.3149 77.1725C24.2051 77.4208 24.155 77.6915 24.1687 77.9629C24.1769 78.5078 24.3958 79.0281 24.7792 79.4134C25.1625 79.7988 25.6802 80.0189 26.2222 80.0271C26.4922 80.0408 26.7615 79.9904 27.0085 79.8801C27.2555 79.7698 27.4732 79.6025 27.6439 79.3919C27.8306 79.2043 27.9787 78.9815 28.0798 78.7363C28.1808 78.4911 28.2328 78.2283 28.2328 77.9629C28.2328 77.6975 28.1808 77.4347 28.0798 77.1895C27.9787 76.9443 27.8306 76.7215 27.6439 76.5338C27.4572 76.3462 27.2356 76.1973 26.9917 76.0957C26.7477 75.9942 26.4863 75.9419 26.2222 75.9419C25.9582 75.9419 25.6968 75.9942 25.4528 76.0957C25.2089 76.1973 24.9873 76.3462 24.8006 76.5338Z" fill="#FAFAFA"/>
<path d="M7.42425 44.3007C8.39277 44.3007 9.33954 44.012 10.1448 43.4711C10.9501 42.9302 11.5778 42.1615 11.9484 41.262C12.319 40.3626 12.416 39.3729 12.2271 38.4181C12.0381 37.4632 11.5717 36.5862 10.8869 35.8978C10.202 35.2094 9.3295 34.7406 8.37959 34.5506C7.42968 34.3607 6.44508 34.4582 5.55029 34.8307C4.65549 35.2033 3.8907 35.8342 3.35262 36.6437C2.81454 37.4531 2.52734 38.4048 2.52734 39.3784C2.53563 40.6813 3.05421 41.9284 3.97077 42.8497C4.88733 43.7711 6.12807 44.2923 7.42425 44.3007ZM7.42425 38.2669C7.67562 38.2669 7.91669 38.3672 8.09444 38.5459C8.27218 38.7246 8.37204 38.9669 8.37204 39.2196C8.37204 39.4722 8.27218 39.7146 8.09444 39.8932C7.91669 40.0719 7.67562 40.1723 7.42425 40.1723C7.17893 40.1539 6.94832 40.0477 6.77437 39.8728C6.60042 39.698 6.49471 39.4662 6.47646 39.2196C6.47205 39.0933 6.49355 38.9674 6.53962 38.8498C6.58569 38.7322 6.65534 38.6254 6.74425 38.536C6.83315 38.4467 6.9394 38.3767 7.05639 38.3303C7.17338 38.284 7.2986 38.2624 7.42425 38.2669Z" fill="#FAFAFA"/>
<path d="M87.3545 12.5441C88.5417 12.5441 89.7022 12.1903 90.6894 11.5273C91.6765 10.8643 92.4459 9.92191 92.9002 8.81938C93.3545 7.71685 93.4734 6.50366 93.2418 5.33322C93.0102 4.16278 92.4385 3.08766 91.599 2.24382C90.7595 1.39998 89.6899 0.825318 88.5255 0.592503C87.3611 0.359688 86.1542 0.479177 85.0573 0.93586C83.9605 1.39254 83.023 2.16591 82.3634 3.15816C81.7039 4.15041 81.3518 5.31698 81.3518 6.51035C81.3518 8.11061 81.9842 9.64532 83.1099 10.7769C84.2357 11.9084 85.7625 12.5441 87.3545 12.5441ZM87.3545 4.60494C87.8966 4.61314 88.4142 4.83325 88.7975 5.21859C89.1809 5.60394 89.3999 6.12423 89.408 6.66913C89.408 7.21659 89.1917 7.74162 88.8065 8.12874C88.4214 8.51585 87.8991 8.73332 87.3545 8.73332C86.8098 8.73332 86.2875 8.51585 85.9024 8.12874C85.5173 7.74162 85.3009 7.21659 85.3009 6.66913C85.3091 6.12423 85.5281 5.60394 85.9114 5.21859C86.2948 4.83325 86.8124 4.61314 87.3545 4.60494Z" fill="#FAFAFA"/>
<path d="M12.3212 52.2402H8.37207V56.2098H12.3212V52.2402Z" fill="#FAFAFA"/>
<path d="M16.2704 48.2705H12.3213V52.2401H16.2704V48.2705Z" fill="#FAFAFA"/>
<path d="M85.4589 38.2671H81.5098V42.2367H85.4589V38.2671Z" fill="#FAFAFA"/>
<path d="M89.4081 34.2974H85.459V38.267H89.4081V34.2974Z" fill="#FAFAFA"/>
<path d="M85.4589 46.2061H81.5098V50.1756H85.4589V46.2061Z" fill="#FAFAFA"/>
<path d="M89.4081 42.2368H85.459V46.2064H89.4081V42.2368Z" fill="#FAFAFA"/>
<path d="M85.4589 54.1455H81.5098V58.1151H85.4589V54.1455Z" fill="#FAFAFA"/>
<path d="M89.4081 50.1758H85.459V54.1454H89.4081V50.1758Z" fill="#FAFAFA"/>
</g>
<defs>
<clipPath id="clip0_1318_866">
<rect width="95" height="94" fill="white"/>
</clipPath>
</defs>
</svg>
