<svg xmlns="http://www.w3.org/2000/svg" width="20" height="20" viewBox="0 0 26 24" fill="none">
<path d="M14.7692 0.000122077C15.7694 6.52671e-05 16.7318 0.389712 17.4595 1.08934C18.1872 1.78897 18.6252 2.74569 18.6839 3.76375L18.6904 3.99831V9.32923H21.3045C22.2654 9.32907 23.1928 9.68864 23.9108 10.3397C24.6288 10.9907 25.0874 11.8879 25.1995 12.861L25.2191 13.0929L25.2257 13.3274L25.1995 13.5886L23.8846 20.2949C23.3866 22.4619 21.9214 24.0212 20.2118 23.9999L19.9974 23.9892H9.541C9.22085 23.9892 8.91186 23.8694 8.67262 23.6524C8.43339 23.4355 8.28055 23.1366 8.24309 22.8124L8.23394 22.6565L8.23525 9.94761C8.23548 9.7139 8.29599 9.48436 8.41069 9.28202C8.5254 9.07968 8.69027 8.91166 8.88877 8.7948C9.44613 8.46658 9.91562 8.00342 10.2557 7.44626C10.5959 6.88909 10.7962 6.25508 10.8389 5.60025L10.8481 5.33104V3.99831C10.8481 2.93792 11.2612 1.92097 11.9965 1.17116C12.7319 0.421359 13.7293 0.000122077 14.7692 0.000122077Z" fill="white"/>
<path d="M4.31277 9.32923C4.63291 9.32927 4.94191 9.44911 5.18114 9.66603C5.42038 9.88294 5.57322 10.1818 5.61068 10.506L5.61983 10.662V22.6565C5.61978 22.9829 5.50225 23.298 5.28951 23.5419C5.07678 23.7859 4.78364 23.9417 4.4657 23.9799L4.31277 23.9892H3.00571C2.3462 23.9895 1.71099 23.7355 1.2274 23.2782C0.743815 22.821 0.4476 22.1943 0.398137 21.5237L0.391602 21.3238V11.9947C0.391393 11.3222 0.640474 10.6745 1.08891 10.1814C1.53735 9.68836 2.152 9.38632 2.80966 9.33589L3.00571 9.32923H4.31277Z" fill="white"/>
</svg>